# xmcd CD database file
#
# Track frame offsets:
#	150
#	13325
#	25677
#	40580
#	51807
#	68932
#	95452
#	112540
#	126310
#	143630
#	156217
#	174767
#
# Disc length: 2581 seconds
#
# Revision: 6
# Processed by: cddbd v1.5.2PL0 Copyright (c) Steve Scherf et al.
# Submitted via: CDex 1.79
#
DISCID=8f0a130c
DTITLE=The Ranch - The Ranch
DYEAR=1997
DGENRE=Country
TTITLE0=Walkin' The Country
TTITLE1=Homespun Love
TTITLE2=Just Some Love
TTITLE3=Some Days You Gotta Dance
TTITLE4=My Last Name
TTITLE5=Desiree
TTITLE6=Freedom's Finally Mine
TTITLE7=Hank Don't Fail Me Now
TTITLE8=Tangled Up In Love
TTITLE9=Clutterbilly (instrumental)
TTITLE10=Man Of The House
TTITLE11=Ghost In This Guitar
EXTD=YEAR: 1997
EXTT0=
EXTT1=
EXTT2=
EXTT3=
EXTT4=
EXTT5=
EXTT6=
EXTT7=
EXTT8=
EXTT9=
EXTT10=
EXTT11=
PLAYORDER=
